{
  "asset": {
    "generator": "Khronos glTF Blender I/O v1.5.17",
    "version": "2.0"
  },
  "scene": 0,
  "scenes": [
    {
      "name": "Scene",
      "nodes": [
        0
      ]
    }
  ],
  "nodes": [
    {
      "mesh": 0,
      "name": "sphere_gltf"
    }
  ],
  "materials": [
    {
      "doubleSided": true,
      "name": "defense_wall_02",
      "normalTexture": {
        "index": 0
      },
      "pbrMetallicRoughness": {
        "baseColorTexture": {
          "index": 1
        },
        "metallicFactor": 0,
        "metallicRoughnessTexture": {
          "index": 2
        }
      }
    }
  ],
  "meshes": [
    {
      "name": "Sphere.001",
      "primitives": [
        {
          "attributes": {
            "POSITION": 0,
            "NORMAL": 1,
            "TEXCOORD_0": 2
          },
          "indices": 3,
          "material": 0
        }
      ]
    }
  ],
  "textures": [
    {
      "sampler": 0,
      "source": 0
    },
    {
      "sampler": 0,
      "source": 1
    },
    {
      "sampler": 0,
      "source": 2
    }
  ],
  "images": [
    {
      "mimeType": "image/jpeg",
      "name": "defense_wall_02_nor_gl_4k",
      "uri": "textures/defense_wall_02_nor_gl_2k.jpg"
    },
    {
      "mimeType": "image/jpeg",
      "name": "defense_wall_02_diff_4k",
      "uri": "textures/defense_wall_02_diff_2k.jpg"
    },
    {
      "mimeType": "image/jpeg",
      "name": "defense_wall_02_rough_4k",
      "uri": "textures/defense_wall_02_rough_2k.jpg"
    }
  ],
  "accessors": [
    {
      "bufferView": 0,
      "componentType": 5126,
      "count": 53909,
      "max": [
        6.076812267303467,
        6.069470405578613,
        6.130540370941162
      ],
      "min": [
        -6.076809406280518,
        -6.122425079345703,
        -6.130534648895264
      ],
      "type": "VEC3"
    },
    {
      "bufferView": 1,
      "componentType": 5126,
      "count": 53909,
      "type": "VEC3"
    },
    {
      "bufferView": 2,
      "componentType": 5126,
      "count": 53909,
      "type": "VEC2"
    },
    {
      "bufferView": 3,
      "componentType": 5123,
      "count": 322170,
      "type": "SCALAR"
    }
  ],
  "bufferViews": [
    {
      "buffer": 0,
      "byteLength": 646908,
      "byteOffset": 0
    },
    {
      "buffer": 0,
      "byteLength": 646908,
      "byteOffset": 646908
    },
    {
      "buffer": 0,
      "byteLength": 431272,
      "byteOffset": 1293816
    },
    {
      "buffer": 0,
      "byteLength": 644340,
      "byteOffset": 1725088
    }
  ],
  "samplers": [
    {
      "magFilter": 9729,
      "minFilter": 9987
    }
  ],
  "buffers": [
    {
      "byteLength": 2369428,
      "uri": "defense_wall_02.bin"
    }
  ]
}